<svg id="Calque_1" data-name="Calque 1" xmlns="http://www.w3.org/2000/svg" viewBox="0 0 400 500"><defs><style>.cls-1{fill:#fff;}.cls-2{fill:#343736;}.cls-3{fill:#009acb;}</style></defs><path class="cls-1" d="M203.56,380.19c-57.78,0-106.49-14.65-116.6-34.94H37.64a13.93,13.93,0,0,1-13.91-13.91V267a13.93,13.93,0,0,1,13.91-13.91H138.79a36.94,36.94,0,0,1,9.83-3.35c.75-.08,1.62-.13,2.54-.19a34,34,0,0,0,6.36-.77c-3.19-2.56-6-8.65-6.45-11.51a3.09,3.09,0,0,1,.4-2.43c.05-2.7.41-13.72,2.92-19,1.24-2.57.67-7.94-1.23-11.71-1.11-2.2-2.53-3.56-4-3.84l-.5-.1-.28-.42a5.44,5.44,0,0,1-.66-3.11,2.61,2.61,0,0,0-.3-.27,9.06,9.06,0,0,1-2.17-2.41l-.15,3.38L142.89,191a21.31,21.31,0,0,0-2.58-3.26A21.19,21.19,0,0,1,137,183.3c-1.42-2.83-3.29-8.54-1.87-13-3.53-2.64-3.53-5.9-3.15-9.83a56.37,56.37,0,0,0,0-11.39,84.8,84.8,0,0,0-1.47-8.72,63,63,0,0,1-1.68-12.61c0-7.59.65-12.53,4.35-20.07a73,73,0,0,1,6.59-11.16l.06-.08c3-4,6.3-8.63,9.76-11.94l1.16-1.12A75.22,75.22,0,0,1,156.69,78l-.07-.26a6.89,6.89,0,0,0,1.21-.58c.44-.31.9-.62,1.4-1l.09,0,.5-.37A20.89,20.89,0,0,1,162.51,74a27,27,0,0,1,5.94-2c1-.23,1.84-.46,2.71-.73a79.14,79.14,0,0,1,18.6-3.19c1.22-.07,2.47-.1,3.71-.1a79.16,79.16,0,0,1,23.19,3.74,63.27,63.27,0,0,1,15,6.86c1.69,1,3.48,2.06,5.21,3,4.48,2.54,9.12,5.17,13,8.86,1.06,1,2.17,2,3.35,3.08,5.36,4.84,11.43,10.33,12.71,17.78l.28,1.58a52.21,52.21,0,0,1,1.14,12.13,47.36,47.36,0,0,0,0,6c0,.43.09.87.16,1.31s.32,1,.55,1.78c.48,1.58,1.21,4,1.46,4.55a36.13,36.13,0,0,1,1.43,4.21,25,25,0,0,1,.88,6.66,32.76,32.76,0,0,1-.3,3.81,30.78,30.78,0,0,0-.29,3.56,29.63,29.63,0,0,1-.63,6.06,17.79,17.79,0,0,1-2.47,6.2,18.57,18.57,0,0,1-1.51,2l-.7.87c-.44.87-.94,1.77-1.47,2.72l-.28.52c-.81,1.73-1.72,3.68-2.59,5.66l-.06.18a12.53,12.53,0,0,0-.25,2,9.09,9.09,0,0,1-.92,3.9,11.86,11.86,0,0,1-1.64,2.25,11.37,11.37,0,0,0-1.29,1.7,13.23,13.23,0,0,0-1.17,5,14.67,14.67,0,0,1-1.47,5.89,6.87,6.87,0,0,1-5.5,3.32,10.82,10.82,0,0,0-2.56,2.26,6.66,6.66,0,0,0-.9,3.51c0,.47-.08.94-.14,1.39-.24,1.76-.41,3.57-.57,5.32s-.32,3.42-.55,5.14c-.34,2.56-.72,5.12-1.09,7.67-.18,1.22-.36,2.44-.53,3.65a49.71,49.71,0,0,0-.22,8.31c0,1.18.07,2.36.07,3.51a15,15,0,0,0,.82,4.91c.19.33.38.66.6,1a8.48,8.48,0,0,0,1,1.22H355.58a21.76,21.76,0,0,1,21.73,21.74v56.52a13.93,13.93,0,0,1-13.91,13.91H320.17C310.06,365.54,261.35,380.19,203.56,380.19Z"/><path class="cls-1" d="M193.47,69.22a78.29,78.29,0,0,1,22.83,3.69A61.87,61.87,0,0,1,231,79.64c6.07,3.75,12.76,6.75,18,11.74,6.1,5.84,14.24,11.64,15.71,20.18.79,4.61,1.64,8.65,1.4,13.44a48.22,48.22,0,0,0,0,6.13c0,.49.11,1,.19,1.5.34,1,1.66,5.57,2.09,6.53a35.45,35.45,0,0,1,1.35,4,23.43,23.43,0,0,1,.85,6.34c0,2.36-.6,5-.6,7.37a28.51,28.51,0,0,1-.6,5.84,16.86,16.86,0,0,1-2.31,5.78c-.63,1-1.48,1.93-2.21,2.9-.51,1-1.14,2.14-1.78,3.29-.91,1.93-1.81,3.88-2.66,5.82,0,.11-.08.22-.1.33-.48,1.93-.06,3.64-1.07,5.56-.78,1.5-2.08,2.45-2.91,3.94-1.84,3.3-.82,7.68-2.64,10.89A5.8,5.8,0,0,1,248.8,204a12.51,12.51,0,0,0-3.13,2.7c-1.17,1.51-1,3.67-1.28,5.49-.48,3.47-.66,7-1.12,10.46-.51,3.79-1.08,7.56-1.62,11.31s-.17,8.07-.17,12a16.57,16.57,0,0,0,.92,5.41c.22.39.45.78.71,1.17a10.24,10.24,0,0,0,1.52,1.78h111a20.57,20.57,0,0,1,20.5,20.51v56.52A12.72,12.72,0,0,1,363.4,344h-44C310.49,363.82,262,379,203.56,379S96.64,363.82,87.74,344H37.64A12.71,12.71,0,0,1,25,331.34V267a12.71,12.71,0,0,1,12.67-12.68H139.09a36.22,36.22,0,0,1,9.66-3.35c3.42-.36,9.15-.15,11.93-2.31a1.33,1.33,0,0,1-.4,0c-3.88,0-9.73-12.62-7.58-13.28,0,0,.08-13.33,2.81-19,2.21-4.62-.53-16.23-6.12-17.29a5,5,0,0,1-.4-2.9,8.86,8.86,0,0,0-.77-.73c-2.2-1.87-2-2.37-3.12-5,0,1,0,2,0,3a8.65,8.65,0,0,0-1-2.71s0,.09,0,.14c-.05-.14-.09-.29-.15-.42-1.62-2.76-4.44-4.8-5.92-7.72-1.72-3.41-3.19-9.11-1.48-12.93-3.71-2.33-3.83-5-3.42-9.25a56.37,56.37,0,0,0,0-11.62c-.72-7.26-3.14-13.89-3.14-21.21,0-8,.77-12.49,4.22-19.53a72,72,0,0,1,6.47-11c2.9-4,6.28-8.61,9.68-11.86a84.14,84.14,0,0,1,7.35-6.66l-.78.2a8.62,8.62,0,0,0,1.47-.7c.44-.31.9-.62,1.4-.95l.09-.05a25.11,25.11,0,0,1,3.09-2.1c2.61-1.36,5.69-1.79,8.44-2.65a77.91,77.91,0,0,1,18.31-3.13c1.22-.08,2.43-.11,3.64-.11m0-2.47h0c-1.26,0-2.54,0-3.78.11a80.57,80.57,0,0,0-18.9,3.24c-.83.26-1.71.48-2.64.72a27.91,27.91,0,0,0-6.21,2.1,23.23,23.23,0,0,0-2.86,1.89l-.43.33-.08,0c-.48.31-.95.62-1.41.94a6.22,6.22,0,0,1-.95.46l0,.2a70.84,70.84,0,0,0-6.33,5.67l-1.18,1.13c-3.53,3.38-6.91,8-9.9,12.1l-.06.09a74.36,74.36,0,0,0-6.7,11.33c-3.8,7.76-4.47,12.83-4.47,20.62a63.32,63.32,0,0,0,1.71,12.86,87,87,0,0,1,1.45,8.59,55.49,55.49,0,0,1-.05,11.15c-.38,3.95-.4,7.5,3,10.41-1.09,4.71.74,10.28,2.17,13.11a22,22,0,0,0,3.51,4.72,22.11,22.11,0,0,1,2.38,3v0l0,.12,4.8,14v-7a4.92,4.92,0,0,0,.74,1.89l.57.84,1,.19c1.07.2,2.2,1.36,3.12,3.19,1.86,3.67,2.18,8.63,1.23,10.62-2.52,5.26-3,15.87-3,19.12a4.56,4.56,0,0,0-.4,3A26.7,26.7,0,0,0,155,248c-1.32.17-2.72.25-3.92.32-.93.06-1.8.11-2.6.19a37.62,37.62,0,0,0-10,3.35H37.64A15.15,15.15,0,0,0,22.5,267v64.35a15.15,15.15,0,0,0,15.14,15.14H86.21c11.06,20.34,59.78,34.95,117.35,34.95s106.29-14.61,117.36-34.95H363.4a15.15,15.15,0,0,0,15.14-15.14V274.82a23,23,0,0,0-23-23H245.68a5.67,5.67,0,0,1-.51-.67c-.17-.25-.32-.51-.49-.81A13.47,13.47,0,0,1,244,246c0-1.18,0-2.38-.07-3.54a48.26,48.26,0,0,1,.21-8.11c.17-1.19.34-2.38.52-3.57.37-2.54.76-5.16,1.1-7.76.23-1.75.4-3.5.55-5.19s.33-3.53.57-5.26c.07-.5.11-1,.15-1.46a6.08,6.08,0,0,1,.64-2.86,9.14,9.14,0,0,1,2-1.82,8,8,0,0,0,6.12-3.9,15.72,15.72,0,0,0,1.62-6.37,12.44,12.44,0,0,1,1-4.55,9.4,9.4,0,0,1,1.14-1.49,13,13,0,0,0,1.81-2.49,10.27,10.27,0,0,0,1.05-4.39,11.16,11.16,0,0,1,.22-1.74h0v0c.85-1.93,1.76-3.88,2.54-5.55l.24-.43c.52-.93,1-1.81,1.45-2.68l.61-.76a18,18,0,0,0,1.61-2.17,19,19,0,0,0,2.62-6.63,30.86,30.86,0,0,0,.65-6.27,30.84,30.84,0,0,1,.28-3.41,32.69,32.69,0,0,0,.32-4,26.07,26.07,0,0,0-.93-7,35.2,35.2,0,0,0-1.49-4.4c-.23-.52-1-3-1.41-4.41-.21-.7-.4-1.32-.52-1.7a11.24,11.24,0,0,1-.14-1.13,46.74,46.74,0,0,1,0-5.81,52.55,52.55,0,0,0-1.16-12.4c-.09-.52-.18-1-.27-1.58-1.35-7.87-7.6-13.51-13.1-18.48-1.17-1.06-2.28-2.06-3.33-3.06-4-3.8-8.67-6.46-13.21-9-1.72-1-3.5-2-5.17-3a64.5,64.5,0,0,0-15.24-7,80.29,80.29,0,0,0-23.55-3.8Z"/><path class="cls-1" d="M143.22,193.1a7,7,0,0,1-.3-2.23l0-7.31,2.37,6.92a5.72,5.72,0,0,1,.3,2.37l-.56,6.24Z"/><path class="cls-1" d="M144.15,190.88a4.21,4.21,0,0,1,.24,1.86,6.51,6.51,0,0,1-.24-1.86m-2.4-14.65-.06,14.63a8.43,8.43,0,0,0,.35,2.6l3.68,12L146.85,193a6.83,6.83,0,0,0-.36-2.88l-4.74-13.85Z"/><ellipse class="cls-2" cx="203.56" cy="337.44" rx="117.3" ry="41.52"/><path class="cls-2" d="M37.64,254.31H355.58a20.5,20.5,0,0,1,20.5,20.5v56.53A12.67,12.67,0,0,1,363.4,344H37.64A12.67,12.67,0,0,1,25,331.34V267a12.67,12.67,0,0,1,12.67-12.67Z"/><path class="cls-2" d="M164.53,158.24c-1.47,0-1.95.72-3,1.55a7.3,7.3,0,0,1-3.32,1.48c1.36.93,2.22,1.86,4.2,1.49,1.64-.31,2.83-1.07,3-2.8A1.4,1.4,0,0,0,164.53,158.24Z"/><path class="cls-1" d="M215.05,165.73a15.16,15.16,0,0,0,4-.66c1.39-.35,2.82-.63,4.19-1a14.38,14.38,0,0,0,4.85-1.94c1.17-.69,1-1.36,2-2a2.25,2.25,0,0,1,2.9.54,2.17,2.17,0,0,1,.66,1.33c.1.89-.14.65-1.19.75a24.18,24.18,0,0,0-7.41,1.92,17.48,17.48,0,0,1-5.33,1.56C218.4,166.32,216.09,166.49,215.05,165.73Z"/><path class="cls-1" d="M301.51,323.41c-33,0-86.62-2-133.54-5.07-38.28-2.47-84.53-6.36-87.48-10.84a1.57,1.57,0,0,1-.15-1.51c.88-2,5.58-9.72,10.1-10.72,1.52-1.38,3.08-2.74,4.59-4.06,2.34-2,4.76-4.13,7-6.31a86.37,86.37,0,0,1,23.82-16.81,26.4,26.4,0,0,1-4.08.31c-.48,0-1,0-1.46,0a1,1,0,0,1-.27-1.95c8.47-2.85,10.72-5.36,13.11-8a27.15,27.15,0,0,1,4.37-4.1,35.43,35.43,0,0,1,11.82-4.55c.75-.07,1.62-.12,2.53-.18,1.17-.07,2.45-.14,3.69-.29-.77-.18-1.53-.38-2.28-.59-1.06-.29-2.17-.59-3.29-.8a22.83,22.83,0,0,0-4.1-.36c-3.59,0-6.64.78-8.59,2.19s-3.66,2.93-5.83,4.83c-2,1.75-4.24,3.73-7.3,6.19a18.45,18.45,0,0,1-12.1,3.9c-5.19,0-10.54-1.47-14.63-2.76-5.87-1.85-10.14-4.66-14.27-7.37-2.11-1.39-4.11-2.71-6.25-3.85a1,1,0,0,1-.41-1.35,1,1,0,0,1,.88-.53,1,1,0,0,1,.47.12c6.77,3.6,17.27,6.34,22.68,7.3a44.47,44.47,0,0,0,7.78.82,16,16,0,0,0,12.25-5c1.39-1.35,3.34-3.33,5.4-5.43s4.46-4.53,6-6c4.24-4.09,12.19-4.73,14.52-4.82a19,19,0,0,0,3.93-.66,42.72,42.72,0,0,0-13.92-2l-1.57,0c-3.68.09-6.63,2-9.75,3.93l-.75.47c-.92.58-2,1.38-3.19,2.23-3.37,2.46-7.19,5.24-10.44,5.62a62.9,62.9,0,0,1-7.43.49,40.77,40.77,0,0,1-18.44-4.32c-1-.48-2-1-3.06-1.54-3.1-1.62-6.31-3.29-9.61-3.72a14.56,14.56,0,0,0-1.84-.12c-4.21,0-7.58,2-11.23,4.35a16,16,0,0,1-8.82,2.73A20.33,20.33,0,0,1,38.77,239a1,1,0,0,1,.57-1.82,1.15,1.15,0,0,1,.41.08l.76.35c2.44,1.11,4.74,2.15,7.05,2.15a7.8,7.8,0,0,0,3.62-.91,63.89,63.89,0,0,0,7.5-4.76c4.87-3.43,9.91-7,16.61-7.89a11.82,11.82,0,0,1,1.6-.11c4.19,0,8.57,2,13.2,4.17s9.25,4.27,13.59,4.27a12.36,12.36,0,0,0,1.62-.11,1,1,0,0,1,.46-.11H106a9.81,9.81,0,0,0,1.5-.4c1.84-1.24,4-4.49,5.37-6.93,2.72-5,6-6.76,11.26-8.32l.12,0c4.51-1.36,7.67-2.63,7.36-6.6,0-.37-.07-.74-.1-1.1-.26-2.67-.52-5.43,1.41-8a11.07,11.07,0,0,1,2.52-2.29,11,11,0,0,0,1.88-1.59,8.37,8.37,0,0,0,2.2-6.25A18.15,18.15,0,0,0,138,187.3a14.24,14.24,0,0,0-1.11-1.79c-.93-1.34-1.89-2.72-1.9-4.24a1,1,0,0,1,.65-1,1,1,0,0,1,1.12.3c.09.12.19.23.29.35-1.17-3.06-2.13-7.44-.94-11-3.57-2.58-3.58-5.69-3.19-9.73a56.07,56.07,0,0,0,0-11.43,84.54,84.54,0,0,0-1.47-8.73,62,62,0,0,1-1.68-12.58c0-7.71.63-12.42,4.33-20a72.11,72.11,0,0,1,6.56-11.12c3-4.11,6.35-8.69,9.79-12l1.22-1.16c3.73-3.59,5.28-5.07,8.38-7.07a19.65,19.65,0,0,1,4.82-2A15.92,15.92,0,0,0,169,72.53a.89.89,0,0,1,.38-.15c3.28-.61,5.79-1.21,8-1.74A43.51,43.51,0,0,1,188.8,69a140.47,140.47,0,0,1,22,1.28C222.6,72.12,233,79,242.08,85.15c7.57,5.07,18.08,13,22,23.23a29.94,29.94,0,0,1,1.55,7.83c.16,1.54.33,3.13.65,4.68a30.71,30.71,0,0,1,.46,6.22c0,2.71,0,5.27.91,7.51,1.7,4.44,3.46,9,3.7,14.37a36.27,36.27,0,0,1-.26,5c-.1.95-.19,1.85-.23,2.74,0,.22,0,.54,0,.91.07,1.42.17,3.19-.69,4.1a1.76,1.76,0,0,1-1,.53c0,.15.08.31.12.47a5.91,5.91,0,0,1,0,4,14.35,14.35,0,0,1-1.59,2.64,15.21,15.21,0,0,0-1.28,2c-.45.92-1,1.89-1.57,2.92a29.12,29.12,0,0,0-3,6.5,11.05,11.05,0,0,0-.25,2,9,9,0,0,1-.9,3.8,11.33,11.33,0,0,1-1.61,2.21,10.37,10.37,0,0,0-1.31,1.75,13.14,13.14,0,0,0-1.21,5.1,14.47,14.47,0,0,1-1.44,5.8,7,7,0,0,1-6.41,3.29,10.56,10.56,0,0,1-2.8-.38,68.56,68.56,0,0,1-8.18,15.23,14.56,14.56,0,0,1,3.87-.46l1.17,0a1,1,0,0,1,.9.68,16.85,16.85,0,0,1,.5,7.11c1.47-.57,2.93-1.17,4.36-1.76,6.67-2.74,13.56-5.57,21.83-5.57,8,0,15.78,3.18,23.34,6.24,3.5,1.41,6.81,2.75,10.09,3.78,8.05,2.52,17.44,3.78,28.69,3.87l.56,0,.65,0a1,1,0,0,1-.06,2h-1.11a21.89,21.89,0,0,0-4.08.72,28,28,0,0,1-4.12.75,41.31,41.31,0,0,0-5.58,1,35.57,35.57,0,0,1-7.29,1.16h-.16a70.2,70.2,0,0,1-13.79-1.64c-2.23-.42-4.54-.86-7.05-1.21a39.09,39.09,0,0,1-8.16-2.36c-3.21-1.19-6.25-2.31-9.41-2.31a12.81,12.81,0,0,0-2.25.2c-5.88,1.07-9.05,3.44-12.42,5.95-3.1,2.31-6.3,4.69-11.62,5.87.28,0,.59,0,.93,0,2.5,0,8-.43,16.61-3.34a31.78,31.78,0,0,1,10.12-1.63c11.46,0,21.43,5.83,26.36,9.31,3.35,2.36,8.13,6,11,10.31a1,1,0,0,1-.18,1.31,1,1,0,0,1-.66.25,1,1,0,0,1-.66-.25c-4.27-3.76-9.94-6.9-18.39-10.2a19.11,19.11,0,0,0-7.06-1.32c-4.07,0-8.74,1.19-14.7,3.74a27.69,27.69,0,0,0-6.2,4.33,3.88,3.88,0,0,0-.31.26c5.05.86,8.53,2.15,10.34,3.83a2.64,2.64,0,0,0,1.43.68,5.22,5.22,0,0,1,2,.85c1.51,1.07,8.34,4.33,9.86,4.49,1.31.13,2.36.32,3.68.56,2,.38,4.58.85,9.57,1.37,9.22,1,13.25,4.91,17.85,12.31a55.83,55.83,0,0,0,4.15,5.29c2.24,2.65,4.56,5.4,5.61,7.51a100.52,100.52,0,0,1,4.29,12.06c.59,1.86,1.14,3.61,1.57,4.86,1.26,3.57,1.1,4.6.27,5.56-.17.19-.48.55.54,3.68a1.38,1.38,0,0,1-.2,1.24c-.61.83-1.87,2.57-33,2.57Zm-152.18-65.6c-3.06.06-6,1.92-9.32,4.06-1,.64-2,1.3-3.09,1.93a92,92,0,0,1,11.15-2.65c4.17-.73,6.21-1.08,8.55-2.76a45.77,45.77,0,0,0-6.71-.59Zm-14-41a12.52,12.52,0,0,1-1.71,3.29c1.11-.08,2.25-.15,3.4-.2a1.72,1.72,0,0,0,0-.5,4.34,4.34,0,0,0-.88-1.49A11.84,11.84,0,0,1,135.32,216.78Zm13.21-8.05c-.12.14-.25.28-.38.41A8.19,8.19,0,0,1,144.9,211c-1.71.61-2.61,1-2.86,2.74a6.58,6.58,0,0,0,.23,2.63,4.73,4.73,0,0,1,0,3.15,19.16,19.16,0,0,0,2.31-.62c2.07-.7,4.08-1.56,4.82-3.13s.15-3.62-.45-5.58C148.8,209.67,148.65,209.19,148.53,208.73Zm-8.05-6.94c-2.21,2-4.47,4.15-4.46,6.87,0,0,0,1.46,0,1.64.23-.35.48-.7.72-1a14.93,14.93,0,0,1,4.2-3.48l.43-.27a12.75,12.75,0,0,0-.46-2C140.76,203,140.6,202.38,140.48,201.79Zm5-4.37a6.69,6.69,0,0,1-.91,2.26,6.75,6.75,0,0,0-.69,1.56,2.68,2.68,0,0,0,.21,1.5c.05.17.11.35.16.55.15-.17.28-.34.41-.51a5.35,5.35,0,0,0,1.05-2.69,6.83,6.83,0,0,1-.13-2.18C145.52,197.75,145.49,197.59,145.45,197.42Z"/><path class="cls-2" d="M188.8,70a139.64,139.64,0,0,1,21.87,1.26c11.44,1.82,21.52,8.51,30.85,14.75,8.38,5.62,18,13.18,21.63,22.76,1.57,4.08,1.29,8.19,2.17,12.35.94,4.46-.22,9.66,1.4,13.89,1.78,4.63,3.41,9,3.64,14.05.11,2.63-.37,5.22-.49,7.69-.06,1.15.55,4.61-1,4.61a1.86,1.86,0,0,1-.81-.23c-.17,1.59,1.2,3.25.33,5.34-.62,1.52-2.07,3-2.84,4.59-1.42,2.91-3.87,6.51-4.64,9.63-.47,1.94-.05,3.64-1.06,5.57-.79,1.5-2.09,2.44-2.92,3.93-1.84,3.3-.82,7.68-2.64,10.9a6.09,6.09,0,0,1-5.54,2.78,9.59,9.59,0,0,1-3.39-.63,65.46,65.46,0,0,1-11.15,19.4,11.13,11.13,0,0,1,7.42-2.38l1.13,0a18.35,18.35,0,0,1,.25,8.31c8.8-3.24,16.93-7.85,27.39-7.85h.09c11.21,0,22.51,6.67,33.05,10,9.18,2.88,19.3,3.85,29,3.92-2.77.13-5.5,1.26-8.26,1.47-3.75.28-9,2.17-12.79,2.18h-.16c-7.54,0-13.19-1.79-20.7-2.84-6.19-.86-11.69-4.68-17.71-4.68a13.47,13.47,0,0,0-2.43.22c-12.29,2.25-13.55,10.18-25.69,12.13-2.66.43-1.68,1.69,2.76,1.69,3.52,0,9.19-.78,16.93-3.39a30.56,30.56,0,0,1,9.8-1.58c10.19,0,19.6,4.76,25.78,9.12,3.8,2.68,8.11,6.1,10.74,10.06-4.19-3.69-9.76-6.9-18.69-10.38a20.15,20.15,0,0,0-7.42-1.39c-4.38,0-9.22,1.3-15.1,3.82-2.87,1.23-5.6,3.86-8.49,6.16,4.95.67,9.81,1.84,12,3.92,1.28,1.18,2.2.64,3.56,1.6s8.47,4.48,10.34,4.67c3.23.32,5,1.07,13.25,1.94,8.73.92,12.5,4.45,17.1,11.84,2.09,3.35,7.94,9.15,9.71,12.72,1.95,3.89,4.41,12.76,5.82,16.8,2.54,7.24-1.6,1.88.8,9.22.57,1.76-12.19,2.5-32.26,2.5-68.79,0-223.36-8.8-220.24-16,.85-2,5.58-9.57,9.65-10.19,3.9-3.58,8-6.91,11.81-10.59a83.64,83.64,0,0,1,45.52-23.48c5.2-.9,7.31-1.27,10.75-4.38a56.79,56.79,0,0,0-9.08-.95h-.6c-7.82.16-14,10.59-27.55,10.59-.46,0-.93,0-1.41,0,12.85-4.33,11.92-8,17.75-12.25a34.6,34.6,0,0,1,11.33-4.36c3.42-.35,9.16-.14,11.94-2.3a9.87,9.87,0,0,1-2.32.28c-3,0-5.75-1.24-8.89-1.82a23.16,23.16,0,0,0-4.28-.39c-3.33,0-6.82.68-9.18,2.4-3.77,2.74-6.78,5.9-13.16,11a17.72,17.72,0,0,1-11.48,3.68c-4.68,0-9.64-1.24-14.33-2.71-8.72-2.75-14-7.74-20.35-11.15,7.12,3.79,17.91,6.51,23,7.41a46.31,46.31,0,0,0,8,.83,17,17,0,0,0,13-5.33c2.91-2.84,8.46-8.61,11.4-11.45,3.31-3.2,9.47-4.36,13.86-4.55a27.7,27.7,0,0,0,6.87-1.47s-5.54-3.23-16.9-3.23l-1.6,0c-4.25.11-7.48,2.34-11,4.55s-9.11,7.23-13.21,7.71a62.13,62.13,0,0,1-7.32.48,39.91,39.91,0,0,1-18-4.22c-4.15-2-8.38-4.76-13-5.35a14.92,14.92,0,0,0-2-.13c-4.42,0-7.93,2-11.77,4.51a15,15,0,0,1-8.27,2.57,19.53,19.53,0,0,1-11-3.92c2.82,1.26,5.44,2.58,8.22,2.58a8.76,8.76,0,0,0,4.08-1c7.75-4,14-11.2,23.78-12.55a10.18,10.18,0,0,1,1.47-.1c8.12,0,17.88,8.44,26.79,8.44a13.17,13.17,0,0,0,2.26-.19c-.06,0-.12,0-.18,0h.36a11.05,11.05,0,0,0,1.83-.5c2.39-1.53,4.87-5.66,5.8-7.35,2.5-4.57,5.54-6.3,10.67-7.85,4-1.19,8.59-2.53,8.19-7.67-.24-3-.84-5.83,1.11-8.46,1.17-1.57,3.09-2.35,4.36-3.82a9.31,9.31,0,0,0,2.43-7,19.62,19.62,0,0,0-1.65-5.81c-.81-1.72-2.9-3.73-2.92-5.61a67.75,67.75,0,0,1,5.57,7.16,6.79,6.79,0,0,1,3.14,1.77c-1.62-2.73-4.42-4.76-5.88-7.66-1.72-3.41-3.2-9.11-1.48-12.92-3.72-2.34-3.83-5-3.42-9.25a57.91,57.91,0,0,0,0-11.63c-.72-7.26-3.15-13.89-3.15-21.21,0-8,.77-12.49,4.22-19.53a73,73,0,0,1,6.48-11c2.89-4,6.28-8.6,9.68-11.85,4.57-4.38,6.11-6,9.44-8.11,2.74-1.77,6.41-2,9-3.7C178.75,71.66,182,70,188.8,70M155,203.46c-1.18-2.36-2.84-4.18-4.89-4.57a4.92,4.92,0,0,1-.4-2.9c-.25-.25-.5-.5-.77-.73-2.21-1.87-2-2.36-3.13-5,0,.43,0,.85,0,1.28a27.52,27.52,0,0,1,2.47,4.43,14.55,14.55,0,0,1,1,3.07c1.66,1.59,3.82,2.86,5.69,4.44m-11.78,2a9.83,9.83,0,0,0,2.25-2.12,6.34,6.34,0,0,0,1.25-3.33,5.82,5.82,0,0,1-.12-2.14c0-.26-.1-.52-.17-.79a18.87,18.87,0,0,0-3.85-6.8,10.83,10.83,0,0,1,1.09,3.64,5.39,5.39,0,0,1,.75,1.74c.55,2.43-1,3.37-1.51,5.3-.4,1.54,1,2.77.36,4.4a.47.47,0,0,1-.05.1m-11,15.69c1.84-.15,3.69-.27,5.55-.34a2.49,2.49,0,0,0,.19-1.68c-.29-1.36-1.9-2.46-2.21-3.95-.42-2,.68-3.81,1.82-5.34,1.25-1.68,3.1-2.67,4.82-3.81.13-2-1.38-4.29-1-6.39,0-.06,0-.12,0-.18-2.65,2.66-6.45,5.25-6.44,9.18,0,4.63.28,7.48-2.46,11.14a7.57,7.57,0,0,1-1.31,1.34l1,0m7.65-.4h.78a23.46,23.46,0,0,0,4.25-1c1.93-.65,4.45-1.63,5.41-3.66,1.13-2.39-.18-5.29-.8-7.68-.09-.34-.37-1.07-.72-2a7.06,7.06,0,0,1-1.34,1.95c-2.16,2.19-5.82,1.23-6.39,5.11-.48,3.28,2.06,4.79-1.19,7.23h0m14.61.47c.11-.4.22-.83.35-1.27a17,17,0,0,1-1.79,1.15l1.44.12m178.64,13.34.59,0h-1.13l.54,0M188.8,68a45.22,45.22,0,0,0-11.66,1.69c-2.2.53-4.7,1.13-8,1.73a2.06,2.06,0,0,0-.74.3,15.92,15.92,0,0,1-3.87,1.57,20.35,20.35,0,0,0-5.07,2.11c-3.17,2-4.85,3.66-8.53,7.19l-1.21,1.16c-3.5,3.35-6.87,8-9.85,12l-.06.08a74.07,74.07,0,0,0-6.65,11.27c-3.77,7.68-4.43,12.7-4.43,20.41a62.63,62.63,0,0,0,1.7,12.77,87,87,0,0,1,1.46,8.64,55.65,55.65,0,0,1-.05,11.24c-.38,3.89-.39,7.37,3,10.19a17.68,17.68,0,0,0,.49,9l-.16,0a2,2,0,0,0-1.3,1.91c0,1.81,1.11,3.4,2.08,4.79a12.46,12.46,0,0,1,1,1.64,17.07,17.07,0,0,1,1.48,5.16,7.3,7.3,0,0,1-2,5.49,10.15,10.15,0,0,1-1.71,1.45,12.1,12.1,0,0,0-2.73,2.49c-2.16,2.91-1.87,6-1.61,8.72,0,.36.07.73.1,1.09.26,3.24-2.34,4.27-6.65,5.56l-.12,0c-5.33,1.6-9,3.56-11.85,8.8-1.35,2.47-3.37,5.39-4.94,6.51a9.67,9.67,0,0,1-1.16.31h-.13a2,2,0,0,0-.74.14,11.63,11.63,0,0,1-1.34.08c-4.12,0-8.72-2.13-13.17-4.18s-9.21-4.26-13.62-4.26a12.4,12.4,0,0,0-1.74.12c-6.93.95-12.08,4.57-17.05,8.06A63,63,0,0,1,50.73,238a6.81,6.81,0,0,1-3.17.8c-2.1,0-4.2-1-6.64-2.06l-.76-.35a2,2,0,0,0-2,3.47,21.34,21.34,0,0,0,12.17,4.28,17,17,0,0,0,9.36-2.89c3.52-2.29,6.75-4.19,10.68-4.19a14.45,14.45,0,0,1,1.72.11c3.13.41,6.26,2,9.28,3.61,1,.53,2,1.07,3.09,1.57a41.85,41.85,0,0,0,18.87,4.41,65,65,0,0,0,7.55-.49c3.51-.41,7.44-3.28,10.91-5.81,1.15-.84,2.24-1.64,3.13-2.19l.75-.47c3.13-2,5.84-3.69,9.24-3.78.53,0,1.05,0,1.55,0a48.46,48.46,0,0,1,8.87.77c-3.24.25-10.13,1.22-14.09,5-1.55,1.5-3.83,3.81-6,6s-4,4.06-5.38,5.41A15,15,0,0,1,108.31,256a44.44,44.44,0,0,1-7.61-.8c-5.34-.95-15.71-3.65-22.38-7.21l-.94,1.77-.94,1.77c2.1,1.12,4.08,2.42,6.18,3.8,4.18,2.75,8.5,5.59,14.51,7.49,4.15,1.3,9.6,2.8,14.93,2.8a19.67,19.67,0,0,0,12.73-4.12c3.07-2.47,5.33-4.46,7.33-6.21,2.15-1.89,3.85-3.39,5.76-4.78,1.75-1.27,4.67-2,8-2a22.25,22.25,0,0,1,3.29.25,36.07,36.07,0,0,0-12.25,4.72,27.79,27.79,0,0,0-4.52,4.24c-2.3,2.55-4.47,5-12.69,7.74a2,2,0,0,0-1.34,2.16,2,2,0,0,0,1.88,1.73l.82,0a89.45,89.45,0,0,0-19.76,14.79c-2.2,2.17-4.61,4.26-7,6.29-1.45,1.26-2.94,2.57-4.4,3.89-5.21,1.41-10,9.93-10.54,11.24a2.56,2.56,0,0,0,.24,2.45c.81,1.24,2.17,3.31,28.39,6.3,14.85,1.7,35.55,3.42,59.85,5,46.94,3,100.63,5.07,133.6,5.07,31.65,0,32.95-1.8,33.82-3a2.36,2.36,0,0,0,.34-2.13,12,12,0,0,1-.68-2.78c1.15-1.39,1.12-2.92-.13-6.48-.43-1.23-1-3-1.56-4.83A99.5,99.5,0,0,0,328.93,293c-1.1-2.22-3.45-5-5.73-7.7a55.92,55.92,0,0,1-4.07-5.18c-4.78-7.67-9-11.75-18.59-12.77-5-.52-7.47-1-9.5-1.36-1.29-.24-2.41-.44-3.76-.58s-7.89-3.25-9.38-4.31a6.15,6.15,0,0,0-2.38-1,1.75,1.75,0,0,1-1-.44c-1.71-1.59-4.59-2.8-8.75-3.69a21.12,21.12,0,0,1,4.63-3.08c5.83-2.5,10.38-3.66,14.31-3.66a18.14,18.14,0,0,1,6.69,1.25c8.34,3.25,13.92,6.34,18.1,10a2,2,0,0,0,2.64,0,2,2,0,0,0,.35-2.61c-3-4.45-7.84-8.17-11.26-10.58-5-3.55-15.2-9.49-26.93-9.49a32.66,32.66,0,0,0-10.44,1.68,70,70,0,0,1-10.17,2.68,45.21,45.21,0,0,0,5.17-3.48c3.27-2.43,6.35-4.73,12-5.77a11.72,11.72,0,0,1,2.07-.18c3,0,5.94,1.09,9.07,2.25a39.94,39.94,0,0,0,8.36,2.41c2.48.35,4.78.78,7,1.2a70.82,70.82,0,0,0,14,1.66h.16a36.27,36.27,0,0,0,7.51-1.19,41.78,41.78,0,0,1,5.44-1,26.63,26.63,0,0,0,4.27-.77,22.11,22.11,0,0,1,3.87-.69h1.09a2,2,0,0,0,.12-4l-.71,0-.58,0c-11.14-.09-20.42-1.34-28.37-3.83-3.24-1-6.53-2.34-10-3.75-7.65-3.09-15.56-6.29-23.62-6.31h-.1c-8.47,0-15.45,2.87-22.21,5.65l-2.86,1.16a16,16,0,0,0-.67-5.9,2,2,0,0,0-1.8-1.37l-1.23,0c-.59,0-1.15,0-1.67.07a71,71,0,0,0,6.6-12.67,11.45,11.45,0,0,0,2.19.21c3.26,0,5.92-1.38,7.28-3.8a15.22,15.22,0,0,0,1.56-6.18,12.76,12.76,0,0,1,1.09-4.73,10.31,10.31,0,0,1,1.2-1.58,12.62,12.62,0,0,0,1.74-2.39,9.68,9.68,0,0,0,1-4.2,11.6,11.6,0,0,1,.23-1.82,28.49,28.49,0,0,1,2.91-6.25c.58-1,1.12-2,1.59-3a15.84,15.84,0,0,1,1.19-1.88,15.15,15.15,0,0,0,1.7-2.84,6.47,6.47,0,0,0,.14-4.3,3,3,0,0,0,.52-.43c1.16-1.23,1.05-3.23,1-4.84,0-.31,0-.67,0-.82,0-.86.13-1.74.22-2.68a35.15,35.15,0,0,0,.27-5.19c-.25-5.5-2-10.16-3.77-14.68a20.77,20.77,0,0,1-.84-7.16,31.52,31.52,0,0,0-.48-6.42c-.31-1.5-.47-3-.64-4.58A30.39,30.39,0,0,0,265,108c-4-10.5-14.7-18.56-22.39-23.7C233.42,78.15,223,71.16,211,69.26A141.38,141.38,0,0,0,188.8,68ZM137.29,207.22a10.16,10.16,0,0,1,2.64-3.54l0,.1c.12.44.25.86.33,1.25a21.54,21.54,0,0,0-3,2.19Zm6.25,10.92a8.63,8.63,0,0,0-.29-2,5.56,5.56,0,0,1-.22-2.26c.17-1.16.6-1.36,2.21-1.94a11.15,11.15,0,0,0,2.78-1.34c.53,1.74,1,3.52.47,4.74-.66,1.41-3.08,2.22-4.24,2.62l-.71.22Zm-8.07.81a.91.91,0,0,0,.07-.14l.09.13Zm7.62,42.18c2.2-1.32,4.23-2.28,6.26-2.32h.56c1.12,0,2.26.07,3.41.18a36.66,36.66,0,0,1-5.39,1.18c-1.64.28-3.25.6-4.84,1Z"/><path class="cls-1" d="M247.83,214.05c-3.3,1.28-3.32,1.51-3.18,1.92a28.65,28.65,0,0,0-.3,8.4c2.56-2.61,7.19-4.18,10.59-5.56,4.27-1.74,8.5-3.2,13.07-3.2,5.15,0,8.19,1.78,12.82,2.93,2.93.73,8,1,10.95-.08,3.56-1.26,8-6.55,8-7.17-2.29,3.45-7.37,4.82-11.29,5.05-8.91.52-16.13-4.74-25.08-4.75A42,42,0,0,0,247.83,214.05Z"/><path class="cls-2" d="M155.35,161.46l.31,18.34c.1-1.69.2-3.35.2-4.94C155.86,170.42,155.55,165.91,155.35,161.46Z"/><path class="cls-2" d="M248.09,155.13c.38,1.12.74,2.33,1.14,3.66A6.44,6.44,0,0,0,248.09,155.13Z"/><path class="cls-2" d="M155.86,152c.71-1.68,1.59-1.92,1.64-4.21-1.33,1.63-2.63,4.53-3.58,5.83-.38-3.47,1.93-5.76,2.61-9-2.82,3.12-4.44,6.44-6.17,9.91a4.59,4.59,0,0,1,.06-3.06c-1.47,2.65-3.27,4.76-4.52,2.44-.92-1.72,1.32-6.47,2.57-9.12-1.31,2.29-4,4.74-6.37,4.51a2.64,2.64,0,0,1-1.78-.72c-.87,6.39-7.81,11.18-4.15,18.74-.82-4.75,5.72-13.43,8.14-17,.9,1.86-1.28,6.6-1.38,9.06-.16,4,.69,7.45,1.36,11.26.7-1.94.32-5.05.9-7.35a29.36,29.36,0,0,1,3.32-7.81c1.49,4.23-2.44,9.7.52,14.37-.76-2.85,0-14.19,3.55-14.66.57,3.44-1.07,7.46-.9,11.11a20.67,20.67,0,0,0,1.61,7.82c-.09-5.72.84-10.8,1.6-16.38.13-.91.2-1.81.3-2.68,0,2.1.06,4.24.16,6.39l-.12-6.76A11,11,0,0,1,155.86,152Z"/><path class="cls-2" d="M148.47,144.83a7.78,7.78,0,0,0,.62-1.38C149,143.77,148.74,144.25,148.47,144.83Z"/><path class="cls-2" d="M150.42,151.51a49.26,49.26,0,0,0,2.48-5.38A20.3,20.3,0,0,0,150.42,151.51Z"/><path class="cls-2" d="M137.75,151.34A9.25,9.25,0,0,1,139.9,147,15.54,15.54,0,0,1,141,143.2,15.77,15.77,0,0,0,137.75,151.34Z"/><path class="cls-2" d="M140.37,146.54a4.41,4.41,0,0,0-.47.49,2,2,0,0,0,.42,1.59A9.57,9.57,0,0,0,140.37,146.54Z"/><path class="cls-2" d="M173.48,168.63c2.54-.59,4.65-1.24,5.29-1.45A12,12,0,0,0,173.48,168.63Z"/><path class="cls-2" d="M210.76,196.73c-2,.74-4.58.23-6.61-.08a13.82,13.82,0,0,1-2-.67c-.49-.21-1-.41-1.59-.6a8.68,8.68,0,0,0-1.4-.44h0c-.69-.21-2.4-.87-3.05-.48-.36.21-.65.82-1,1.1a4.67,4.67,0,0,1-1.35.8,2.55,2.55,0,0,1-2.33-.82c-.29-.23-.56-.72-.88-.79a8.36,8.36,0,0,0-1.19.24,7.52,7.52,0,0,0-2.21,1.19c-.94.51-1.89.88-2.85,1.36s-1.86,1-2.82,1.43-1.78.58-2.73,1a19,19,0,0,0,2.33.4c1.28.36,1.88,1.44,3.2,2.09a3.22,3.22,0,0,0-.44-1.68c1.66-.53,3.43-2.22,5-2.47,1.19-.19,1.21.57,2.06.86a6.38,6.38,0,0,0,2.49.24c2.53-.11,4.12-1.42,6.47-1.42,1.24,0,5.3-.61,4.69,1.43C207.17,199.53,210.39,200,210.76,196.73Z"/><path class="cls-2" d="M196.88,204.28c-2.35.19-10.42,3.24-11.3-.82-.35,2.09,1.33,3,2.44,3.5a11.54,11.54,0,0,0,10.17.38c2.1-1,4.42-.17,6.45-1,.78-.33,1.05-1,1.78-1.43.94-.6,2.07-.48,3-.89A81.16,81.16,0,0,0,196.88,204.28Z"/><path class="cls-2" d="M154.9,197a8.66,8.66,0,0,0,.77,3.65A6.54,6.54,0,0,0,154.9,197Z"/><path class="cls-2" d="M137.6,171.63a29.64,29.64,0,0,0-.14,3.87,11.26,11.26,0,0,0,1,2.89c-.13-.47-.26-.95-.36-1.43C137.78,175.56,138.12,173.51,137.6,171.63Z"/><path class="cls-2" d="M144.15,190.88a6.51,6.51,0,0,0,.24,1.86A4.21,4.21,0,0,0,144.15,190.88Z"/><path class="cls-2" d="M251.15,202.71c-.54.25-1.12.55-1.69.88A2.52,2.52,0,0,0,251.15,202.71Z"/><path class="cls-2" d="M160.53,138.08a7.28,7.28,0,0,0-2.25,5.55c-.15-5.57,6.52-4.16,10.37-4.31,4.86-.19,9.75-.65,12.75-4.74,1.31-1.79,1.56-2.87,2.74-5.77-.56.58-1.35,2-1.93,2.65-1.32,1.52-2.32,1.62-4,2.63-3.41,2-5.72,2.49-9.75,2.48C165.63,136.57,162.7,136,160.53,138.08Z"/><path class="cls-2" d="M170.85,132.43a3.18,3.18,0,0,0,2.15-2.52A4.68,4.68,0,0,1,170.85,132.43Z"/><path class="cls-2" d="M161.35,132.21c-2.68-.12-8.95.6-8.08,4.69l-.32,2.58c.82-.5.49-2.53,1-3.54a4.64,4.64,0,0,1,2.6-2.22c1.88-.82,4-.54,6-.54a37.94,37.94,0,0,0,6.26-.19C166.32,133.21,163.46,132.31,161.35,132.21Z"/><path class="cls-2" d="M170.85,132.43a8.77,8.77,0,0,1-2.09.56A5.45,5.45,0,0,0,170.85,132.43Z"/><path class="cls-2" d="M166.05,126.54c-2.39-.34-4-2.38-6.29-2.73-2.94-.45-3.53,2-4.88,4-1,1.48-2.07,2.61-1.12,4.19.48-4.25,7.67-5.54,11-4.69,3.49.89,5.86,1,8.24-2.09C170.59,126,168.68,126.92,166.05,126.54Z"/><path class="cls-2" d="M157.32,118.72c-1.88.82-3.73,3.28-4.7,4.93,1.64-1.2,4.22-3.47,6.38-3.56,1.93-.09,2.78,1.69,4.42,2.26C163.89,119,159.79,117.64,157.32,118.72Z"/><path class="cls-2" d="M221.91,125.46c-3.65-1.39-8.37-.77-12.11-.2-2.64.41-5.85,1.61-7.42,1.62,1.14.13,2.06.72,3.26.82a31,31,0,0,0,5.62-.19c3.32-.38,8.2-2.18,11.34-.46,1.51.83,2.88,2.65,4.13,3.77s2.85,2.67,4.26,4,2.82,3.33,4.73,4.15c-2.28-1.08-4.38-4.6-5.87-6.38C227.93,130.27,224.74,126.53,221.91,125.46Z"/><path class="cls-2" d="M203.37,123.17a79.59,79.59,0,0,0,11.1-1.27c2-.3,4-.36,6-.51,1.34-.1,3.17-.54,4.46,0,1.63.74,2.59,2.81,4.07,3.78-.14-3.25-2.91-6.36-6.09-6.58-4.66-.32-9.53,1.56-14.07,2.41-5,.93-11.19,2.16-15.7,0C196.42,122.75,199.39,123.2,203.37,123.17Z"/><path class="cls-2" d="M219.2,108.24c.28.17.58.34,1,.52A1.83,1.83,0,0,0,219.2,108.24Z"/><path class="cls-2" d="M197.38,110.72c2.05,1.73,5.24,1.17,7.74,1.26,3,.11,5.28.14,7.92-1.29,1.33-.72,4.26-2.87,6.16-2.45a5.06,5.06,0,0,0-3.24-.91c-2.27.08-4.12,1-6.24,1.77C205.4,110.57,201.54,110.56,197.38,110.72Z"/><path class="cls-2" d="M239.47,141.86c-.13-.36-.27-.72-.41-1.09A5.76,5.76,0,0,0,239.47,141.86Z"/><path class="cls-2" d="M134,149.59c.57-3.06,1.39-6,1.95-9.05.05-.32.11-.66.17-1,1.72,2,4.87,2.29,7.29,1.71,3.56-.85,3.41-3.87,3.25-7,0-.8-.23-6-2-5.43-1.08.38-.32,2.89-.24,3.48.18,1.23.17,3.18-1.22,2.43-.88-.49-.36-1.91-1.69-1.48-1.86.6,1,2.59.24,4.15-1,2.24-3.59.77-4.36-1-1.39-3.19,1.73-5.57,2.35-8.41.47-2.13-.11-6.83-2.6-7.4.51,2.74.78,5.67-.7,8.48a11.64,11.64,0,0,0-.7,1.71,25.46,25.46,0,0,0-1.5-2.44c1-2.15.24-7.5.24-9.74,0,3.29-1.65,5.3-2.19,8.29a19.94,19.94,0,0,0,.32,8.25A58.72,58.72,0,0,1,134,149.59Z"/><path class="cls-2" d="M225.33,109.27a8.11,8.11,0,0,1,3.78,1.26A3.75,3.75,0,0,0,225.33,109.27Z"/><path class="cls-2" d="M237.87,126.05a13.72,13.72,0,0,0,1.13,2.11c1.91,2.78,7.62,4.71,10.25,2,3.87-4-5.53-2.87-7.42-3.49a8,8,0,0,1-4-3.51,31.74,31.74,0,0,0-1.58-5.45c-1-2.48-1.5-5.81-3.39-7.74-2.79-2.83-9.18-4.91-12.91-5.87-2.54-.65-8.79-2-10.1.26,8.11,0,18,.06,22.3,8a14.43,14.43,0,0,1,1.18,3.3,12.93,12.93,0,0,0-4.19-5.11c1.76,2,2.2,5.87,3.16,7.79A27.83,27.83,0,0,0,237.87,126.05Z"/><path class="cls-2" d="M232.11,108.3a12.08,12.08,0,0,1,5.17,2.51C235.91,109,234.28,107.85,232.11,108.3Z"/><path class="cls-2" d="M257.44,141.29c.8.42,1.62.81,2.43,1.23a11.57,11.57,0,0,1,2.56,1.88C261.12,142.54,259.38,141.17,257.44,141.29Z"/><path class="cls-2" d="M340.07,309.19c-1.34-5.11-6.13-10.19-8.27-15.2-3.05-7.12-8.77-13.22-14.26-18.82-9.92-10.14-26.65-6.6-39.22-12-2.41-1-4-2.76-6.14-3.95-2.46-1.35-6-1.41-8.82-1.94-6.16-1.18-12.35-2.79-18.67-2.89a9.85,9.85,0,0,1-1.58-1.84c-.26-.39-.49-.78-.71-1.17a16.57,16.57,0,0,1-.92-5.41c0-3.93-.39-8.14.17-12s1.11-7.52,1.62-11.31c.46-3.48.64-7,1.12-10.46.25-1.82.11-4,1.28-5.49a13.33,13.33,0,0,1,3.79-3.1,8.3,8.3,0,0,1-3.3-.13c-1.42-.39-1.78-1.28-2.44-2.31.68-3.87,1.3-7.84,1.65-11.75.22-2.34.75-4.81,1.21-7.29l.07,0c1.14-1,2,.07,2.55,1.21a3.3,3.3,0,0,0-.45,1.54,31.06,31.06,0,0,1-.91,7.6c1.25-.25,1.91,1,2.52,1.79,2.07-1.69,2.32-3.25,2.59-5.67a6.12,6.12,0,0,1,2-4l2-2.11c-.75,2.65-2.68,4.91-3.12,7.73a12.73,12.73,0,0,1-2.37,6.06c1.23-.73,1.46-2.31,2-3.55a12.48,12.48,0,0,1,2.34-3.91,14,14,0,0,0,2.33-2.85c.56-1.06.88-2.18,1.34-3.27,1.37-3.27,2.93-6.57,4.45-9.81.77-1.65,2.22-2.87,3.15-4.4a16.86,16.86,0,0,0,2.31-5.78,28.51,28.51,0,0,0,.6-5.84c0-2.39.6-5,.6-7.37a23.43,23.43,0,0,0-.85-6.34,35.45,35.45,0,0,0-1.35-4c-.43-1-1.75-5.5-2.09-6.53-.08-.51-.15-1-.19-1.5a48.22,48.22,0,0,1,0-6.13c.24-4.79-.61-8.83-1.4-13.44C263.17,103,255,97.22,248.93,91.38c-5.21-5-11.9-8-18-11.74a61.87,61.87,0,0,0-14.66-6.73,75.39,75.39,0,0,0-26.47-3.58,77.91,77.91,0,0,0-18.31,3.13c-2.75.86-5.83,1.29-8.44,2.65-2.1,1.1-3.78,3-6.05,3.8,8.44-2,16.33-5.59,25.16-6.56a140,140,0,0,1,18.66-.78,97.28,97.28,0,0,1,10,1.81c4,1,7.82,3,11.63,4.66,3.58,1.58,7.55,2.88,10.79,5,1.27.83,2.44,1.84,3.67,2.77h0A20.72,20.72,0,0,0,231.67,84c1.08.54,2.13,1.14,3.17,1.76-3.38-.84-8.35-4.49-10.06-5.26-3.43-1.56-6.57-3.42-10.26-4.38-3.1-.81-6.35-.68-9.37-1.46,4,1.66,8.5,2.21,12.41,4s7.76,3.1,11.55,4.94c2.28,1.11,4.59,1.93,6.87,2.81,3.6,2.29,7,5,10.47,7.37,2.46,1.7,5.16,3.3,7.16,5.41a8,8,0,0,1,.6.71c-.44-.19-.88-.37-1.33-.58-4.24-3.46-9.83-5.68-14.35-8.74-18.26-12.37-39.86-17.46-61.84-12-9.63,2.4-17.54,5.8-24.74,12.6-3.21,3-5.62,6.84-8.76,10-2.13,2.12-5.59,5.73-6.08,8.72,1.48-4.2,4.94-6.61,7.42-9.33s4.95-5.23,7.49-7.77c6.26-6.26,15-8.08,23.43-10.52,11.13-3.24,23.43-2.73,34.79-.19,7.61,1.7,14.5,4.62,21.4,7.88,1.86,1.42,3.33,3.24,3,5.2-1.25-.14-3-2.21-4.33-2.88a49.22,49.22,0,0,0-9-3.52,94.89,94.89,0,0,0-9.37-2.12c.06,1.61-1.91,3.93-2.42,5.54-.72,2.23-1.34,2.29-3.89,2.17-.05-2.63-.5-6,.43-8.5-3.11-1.31-6.74-1.29-10-1.64-1.09-.11-2.84-.53-3.82,0-2.81,1.46-2.2,9-2.53,11.78a15.32,15.32,0,0,0,3.86-.51,24.08,24.08,0,0,1,4.33,0c2.73.13,5.45.2,8.2.2,3,0,5.48,1,8.38,1.38,3.25.47,6.49,1,9.69,1.69,3.71.85,8.12,2,11.2,4.22a21.83,21.83,0,0,1,1.71,1.42,34.75,34.75,0,0,0-3.69-1.8c-2.8-1.13-5.94-1.63-8.85-2.42-3.45-.94-6.79-2-10.29-2.75a53.12,53.12,0,0,0-20.13-.91c-12.88,1.89-25.67,3.7-36.77,11a25.36,25.36,0,0,0-8.37,8.46c-1.81,3-4.85,5-4.93,8.75a20.15,20.15,0,0,1,3.28-4.18c2-2.3,3.66-4.86,5.73-7.12,4.49-4.89,11.5-10.17,18.09-11.7,13.53-3.15,28.3-5.49,42.15-2.72A88.61,88.61,0,0,1,231,104.61,76,76,0,0,1,246,112.8a5.4,5.4,0,0,0-.72-.14,4,4,0,0,1,.74.15l.53.38a53.83,53.83,0,0,1,4.76,3.89,10.51,10.51,0,0,1,2.14,4.36c.22,1.49.33,2.92.49,4.33l-.12-.26c-1.89-3.68-4.86-3.49-8.09-5.25-3-1.64-4-5.08-6.23-7.43a19.12,19.12,0,0,0-2.17-2c2.9,3.89,4.57,11,7.52,12.93,2.32,1.55,4.79,2.33,6.14,5,1.09,2.16,1.1,4.63,1.19,7-.27.43-.54.85-.82,1.26-1.46,2.08-6.15,1.23-8.35.28a9.76,9.76,0,0,1-3.28-2.57c-.45-1-.82-2-1.27-2.81a12.14,12.14,0,0,0-6.95-5.21c.59,1.74,2.23,2.88,3.26,5.3s3,6,5.89,6.45c1.74,1.41,4,2.57,6.11,2.31a10.79,10.79,0,0,0,4-1c1.72-.93,2.36-1.63,4.38-1.46,3.46.28,4.43,3.23,7.3,4.56-2-3.69-7.6-5.68-4.77-10.87,1.5-2.74,3.24.63,4.45,3.58A2.75,2.75,0,0,0,260,134c-.11,4.22,3.9,7.74,3.85,11.74-.47-.45-.94-.91-1.42-1.35a14.49,14.49,0,0,1,1.13,2c-2.09-.81-3.36-3-5.22-4.17a3.49,3.49,0,0,0-2.47-1.39,7.05,7.05,0,0,1,1.73,1c-.12,0-.22-.12-.35-.17,1.14,2.39,5.33,5.86,4.72,8.75l-.72-.21a5.47,5.47,0,0,0-1.86-.91,10.15,10.15,0,0,0-1.09-.14c-.25-.12-.5-.24-.73-.37-1.85-1.13-2.92-3.49-5.42-3.09.48,1.8,1.31,3.5,1.72,5.34a7.27,7.27,0,0,0-1.52-2.59c-.76-.79-2.29-1.28-2.63-2.21-.75-2,1.42-2.26,2.77-2.19,2.56.13,3.57,1,5.28,2.85-.36-1.08-1.29-3.13-2.35-3.67-1.57-.8-5,.09-6.73.3-3.29.39-7.53,1.76-9.22-1.62a43.3,43.3,0,0,0,2,4.5l-.55-.34c-2.62-2.78-6.18-3.84-9.26-6.48-.36-.3-.7-.61-1-.92s-.67-.8-1-1.24c-2.59-3.43-5.17-6.6-9.78-7.44-5.06-.92-10,.63-14.6,1.32a35.64,35.64,0,0,1-9.84,0c-2.95-.52,1.21.87,6.23,1.06a23.06,23.06,0,0,1-6.27-.59c1.84.31,3.57,1.81,5.4,2.41a20.09,20.09,0,0,0,5,.73c3.18.23,6.6,0,9.68.77,3.7.9,6.35,2.19,8.79,5,.62.71,1.15,2,1.73,2.82a3.12,3.12,0,0,1-2.33,1.39c-9.22-1.69-23.48-.57-27,8.63-1.56,4.07-1.4,9.72-1.63,14.26s1.3,9.74.61,14.18c-3,.15-6,.41-9,.65-.21-4.21,0-8.49,0-12.72,0-7.88.3-13.88-6.85-18.19a14.84,14.84,0,0,0-8.72-2.49c-2.13,0-4.66.52-8.76,2.17a30.23,30.23,0,0,0-6.16,3.7c1.61-1.15,8.28-3.51,10.48-3.2,2.71.39,1.17,1.58-.45,2.43-2.46.38-7.84,2.79-7.27,5.29,1.79-1.92,2.26-3.1,5.84-4.32a19,19,0,0,1,6.37-.14,14.26,14.26,0,0,1,6.32,3.1c-4.52-2.6-13.25-1.89-15.72,1.89a10,10,0,0,1-2,.71l-.18,0c.16-.38.08-.77.31-1.16a2.29,2.29,0,0,0-2.41,1.59,3.17,3.17,0,0,1-.77.18,7.25,7.25,0,0,0,.59,1.58c.06.17.13.34.2.49a7.13,7.13,0,0,0,1,2.14c.35.51,1.21.39,1.63.87s-.05,1.42.38,1.89a7.92,7.92,0,0,0,2.75,2.16c3.95,1.58,7.12-.41,10.36-2-5.54,1.3-13.11,2.28-11.76-2.44,2.23.53,3.44,1,5.41.87a21.3,21.3,0,0,0,6.35-.87c2-.55,2.89-2.08,5-1.72.23,1.13-2,1.13-.76,1.9.69.44,2.69.07,3.51.14,2.19.18,3,1.75,3.75,3.62a27.13,27.13,0,0,1-1.54,11.77c-1.13,3-1.84,4.72,1.21,6,1.3.53,3,.19,4.21.89s1.46,2.31,2.25,2.63c3.12,1.28,5.1-1.62,6.8-2.95a7,7,0,0,1,3.76-1.08,4.54,4.54,0,0,0,1.62-.08,3.62,3.62,0,0,0,2.84-3.82c0-2.43-2.2-7.77-5-8.5a4.17,4.17,0,0,0-.38-.26c-1.27-1.51-2.82-1.22-3.16-3.66-.32-2.26.18-4.62,2.22-5.8,2.25-1.3,4.46-.11,6.64.33a24.63,24.63,0,0,0,7.41.16h.81c4.15,0,7,.08,10.91-1.57,2.41-1,5.72-2.54,8.16-1.34-3.23.32-7,2.39-10,3.26-5.06,1.44-9.41,2.34-14.71,1.25,3.23,1.26,6,.77,8.66.21,4.27-.89,11.62-1.77,15.75-.05,2.91,1.21,4,3.57,4.64,6.17,0,.57.07,1.15.1,1.73l.23-.34c.2.9.39,1.81.62,2.69-.06,5-.74,9.85-3.2,12.23a14.75,14.75,0,0,1-1.28.82c-2.46,1.44-5.51,2.21-5.56,4.75a6.84,6.84,0,0,0,.28,1.82c-.38,2.91-1.4,6.12-2,8.76-.76,3.34-1.4,7-3.15,10.07-3.9,6.78-13.36,13-20.46,15-2.19.63-3.48,1.15-4.87,1.51a25.72,25.72,0,0,1-8.26-1,32.46,32.46,0,0,1-12.24-7.12,106.33,106.33,0,0,1-8.49-9.28,44.26,44.26,0,0,1-4-4.65,44.21,44.21,0,0,1-2.08-4.64,11.48,11.48,0,0,0-1.93-3.41,11.45,11.45,0,0,1,3.13,3.09c-.55-1.89-2.61-3.09-4-4.38-.75-.7-2.29-3.33-3.35-4.11-.29-.47-.58-.94-.86-1.41-.23-1.32-.47-2.68-.76-4.13l-.2-11.86c-.31,4.74-.76,9.72.21,14a13.64,13.64,0,0,0,.41,1.46,17.79,17.79,0,0,1-1.52-3.06c-.53,1.07-.83,1.74-1.93.56-1.45-1.54-.8-4.06-1.37-5.9-1.27.17-1.66,1.77-2.22,2.77-1.75-.88-.91-4.61-1-6.27a24.22,24.22,0,0,0-1.41,4.58c-1.68-2.53-1-5.88-1.75-8.58a9.64,9.64,0,0,0-3.26,5.82,18.12,18.12,0,0,1-2.67-5.19c-.2-.49-.45-1-.69-1.56.36,1.26.8,2.51,1.28,3.74a25.77,25.77,0,0,0,2.16,5.11,16.24,16.24,0,0,1,2.26,3.64c0-1.66.47-3.37.39-5,.52,1.2,1.25,3.6,2.28,4.34.13-.22.37-.37.5-.65,1.26.81,1.12,3.11,2.53,4,.59-.88.39-1.89.66-2.74.64,1.44.82,4.41,2.3,5.21a3.8,3.8,0,0,0,.41-1.65A20.32,20.32,0,0,1,154.9,197c0-.66,0-1.34,0-2.08a13.18,13.18,0,0,0,2.29,4.24c1.32,8.32,2.41,14.86,10,26.12a45.91,45.91,0,0,0,12.75,12.19,43.26,43.26,0,0,0,4.8,2.34,3.73,3.73,0,0,0,.66,1.32.24.24,0,0,1,0,.23c-.06.28-.11.55-.15.83a6.15,6.15,0,0,0,0,1.66c0,.2.06.41.08.62h-1.75a4.18,4.18,0,0,0-.38-.49.62.62,0,0,0-.53-.14,1,1,0,0,0-.51.28.65.65,0,0,0-.59-.26.73.73,0,0,0-.57.32.78.78,0,0,0-.4-.27,1.31,1.31,0,0,0-.44,0c-.17,0-.21.2-.35.26a.68.68,0,0,0-.75-.25.76.76,0,0,0-.55.58h-1.87c-.24,0-.47,0-.71,0a1.85,1.85,0,0,0-.51-.4A1.91,1.91,0,0,0,174,244a1.63,1.63,0,0,0-.9.57,1.67,1.67,0,0,0-.25.4,2.39,2.39,0,0,0-.12.46,1.84,1.84,0,0,0,.59,1.71,1.62,1.62,0,0,0,1.44.32,5.46,5.46,0,0,0,.66-.19.25.25,0,0,1,.14,0,3.83,3.83,0,0,0,.76,0h2.17c.1,0,.14,0,.17.14s0,.13.08.16a.92.92,0,0,0,.52.21,1,1,0,0,0,.61-.25.83.83,0,0,0,1.2-.09.61.61,0,0,1,.07.1.71.71,0,0,0,.95,0l.14-.12a3.32,3.32,0,0,0,1.64,1.72,3.53,3.53,0,0,0,2.35.39s-.07.09-.06.11a1.71,1.71,0,0,1,.08.71c0,1.34,0,2.68,0,4,0,2.82,0,5.64-.08,8.46v.26l-.18.06a8,8,0,0,0-1.86.58,10.11,10.11,0,0,0-1.7.95c-.11.08-.23.15-.33.23a4,4,0,0,0-.3.28l-.52.5a5.67,5.67,0,0,0-.48.5c-.24.32-.48.64-.7,1a5.31,5.31,0,0,0-.43.86l-.08.16-.24-.14-.45-.38a2.68,2.68,0,0,1-.3-.28,2.61,2.61,0,0,1-.27-.31,3.75,3.75,0,0,1-.24-.36c-.06-.11-.11-.23-.17-.35a2,2,0,0,1-.19-.45c-.06-.23-.11-.47-.15-.71a.18.18,0,0,1,.09-.22c.33.09.67.2,1,.28a2,2,0,0,0,.49.05c.14,0,.18-.08.15-.23s0-.08,0-.12c-.07-.33-.17-.65-.21-1-.06-.52-.09-1-.11-1.56a9.49,9.49,0,0,1,.18-2.38.81.81,0,0,1,.17-.39.14.14,0,0,0,0-.21,5.27,5.27,0,0,0-1.06.47c-.6.37-1.22.72-1.81,1.1a17.76,17.76,0,0,0-2.11,1.57c-.25.22-.51.43-.75.67a2,2,0,0,0-.26.38c-.06.11-.05.17,0,.23a.86.86,0,0,0,.21.07h.41c.14,0,.28.06.42.07s.23.1.34.08a8.87,8.87,0,0,0-.17,1,7.62,7.62,0,0,0,.26,2.81,6.08,6.08,0,0,0,.21.6c-3.43-3.38-14.36-13.6-19.78-10.34a187.12,187.12,0,0,1-19.07,6c-5,1.19-15.26,5.84-20.1,7.85-6.58,2.74-17,6.89-23.39,10.24-4.16,2.19-7.37,6-11.51,8.78-6.45,4.37.23,11.33-4.09,17.82-5.72,8.6,259.18,23.82,263,17.26C343.12,320.85,341.6,315.1,340.07,309.19ZM262,129.47c.19.38.38.73.58,1.06s.08.93.12,1.4C262.52,131.09,262.28,130.27,262,129.47Zm-8.35,49.27c.34-.39,1-1.62,1.57-1.7,1-.14,1.67,1.32,1.82,2,0,.06,0,.11,0,.17-.58.54-1.15,1.1-1.72,1.7a15.41,15.41,0,0,1-2.88,2.83c.24-1.72,2.16-3.1,2.22-4.83-2,.82-2.14,3.52-3.38,5-.47.57-.88.76-1.24.55C250.43,182.05,252.15,180.49,253.68,178.74Zm-7.5-29a5.59,5.59,0,0,1-1.19-1.13A14.72,14.72,0,0,0,246.18,149.71Zm1.91,5.42a18.77,18.77,0,0,0-2.28-4.81,23.85,23.85,0,0,1,2.44,1.17,5.21,5.21,0,0,1,.6.4,4.74,4.74,0,0,1,1.63,1.91c-1.15-.62-1.92-2.16-3.07-2.48.48,1.26,1.7,2.28,2.13,3.82.57,2,1.24,5.42.23,7.35-1.19-1-1.3-2.85-2.38-4.13l-.27-1.11a3.71,3.71,0,0,0,.16,1,4,4,0,0,0-.62-.53,22,22,0,0,1,1.65,6.36c.12,1.22,0,3.08-.92,2.44a31.88,31.88,0,0,0-.57-4A78.27,78.27,0,0,0,244.24,152,9.57,9.57,0,0,1,248.09,155.13Zm-52.81,14.51a4.77,4.77,0,0,1,.23-1.4C195.43,168.71,195.35,169.17,195.28,169.64ZM185.2,248.07a2,2,0,0,1-1.06-.44.3.3,0,0,1-.14-.3h.64a4.17,4.17,0,0,0,.5,0,.67.67,0,0,1,.5.11c.13.07.26.14.3.3a.81.81,0,0,0,.14.2A1.37,1.37,0,0,1,185.2,248.07Zm6.93-4.19a4.31,4.31,0,0,0,.1-.61,39.57,39.57,0,0,0,5.1,1.3l-5.28,0h-.16A4.81,4.81,0,0,0,192.13,243.88Zm-2.41-.9a2.6,2.6,0,0,0,0-.56.22.22,0,0,1,.09-.21l.71.35.32.14a1.54,1.54,0,0,1,0,.9,1.83,1.83,0,0,1-.5.81l-.38-.26a.55.55,0,0,1-.19-.33A2.62,2.62,0,0,1,189.72,243Zm.12,14.67c.07-2,0-4.09.1-6.13,0,0,0-.06,0-.08s.09-.14.17-.08a5.74,5.74,0,0,1,.5.36c.28.21.56.43.83.67a11.22,11.22,0,0,1,.89.81,6.7,6.7,0,0,1,.69.81c.18.28.37.56.54.85a2.36,2.36,0,0,1,.25.87,4.18,4.18,0,0,1,0,1.32,5.28,5.28,0,0,1-.59,1.64,6.44,6.44,0,0,1-1.06,1.37c-.17.16-.37.28-.52.44a15.29,15.29,0,0,1-1.76,1.26l0,0v-.23C189.81,260.22,189.8,258.93,189.84,257.65Zm-8.43,10.4.32-.52a5.52,5.52,0,0,1,1.14-1.27,6.07,6.07,0,0,1,.57-.43,2.8,2.8,0,0,1,.83-.46,5.33,5.33,0,0,1,1.11-.51c.22-.1.45-.18.69-.28a1.89,1.89,0,0,1,0,.75c-.07.26-.13.52-.21.77a2.41,2.41,0,0,1-.33.73c-.14.18-.22.4-.35.58a3.09,3.09,0,0,1-.91.82c-.31.17-.63.31-.95.46a1.46,1.46,0,0,1-.19.07,2.57,2.57,0,0,1-.38.08,2.22,2.22,0,0,1-.44,0l-.78-.06c-.13,0-.27,0-.45-.07A3.7,3.7,0,0,1,181.41,268.05Zm.4,6.07c-.18-.26-.37-.51-.53-.78a5.07,5.07,0,0,1-.45-1.11,2.91,2.91,0,0,1,0-.31c.28.08.54.18.8.24a13.47,13.47,0,0,1,2,.61,8,8,0,0,1,2,1.1,7.69,7.69,0,0,1,.94.87,6.34,6.34,0,0,1,.57.79c.2.31.36.65.54,1a.2.2,0,0,0,.36,0c.06-.08.1-.17.15-.25a3,3,0,0,0,.29-.44,4.6,4.6,0,0,1,.37-.6,1.49,1.49,0,0,0,.12-.14,4.7,4.7,0,0,1,.93-1,5.92,5.92,0,0,1,.48-.35c.16-.11.33-.2.5-.3a6.84,6.84,0,0,1,.86-.42,9.16,9.16,0,0,1,1.45-.49c.49-.11,1-.25,1.45-.37.28-.08.58-.13.87-.19l1.33-.32a6.79,6.79,0,0,0,2.25-.91,5.4,5.4,0,0,0,1.21-1.13,4.33,4.33,0,0,0,.58-.94,5.94,5.94,0,0,0,.46-1.76c0-.42,0-.84.06-1.26a3.82,3.82,0,0,0-.12-1.17c0-.2,0-.25.19-.28a4.6,4.6,0,0,1,.91-.09.44.44,0,0,0,.2,0,.17.17,0,0,0,.11-.26,1.77,1.77,0,0,0-.21-.32,6,6,0,0,0-.81-.78,18.77,18.77,0,0,0-1.51-1.19,2.6,2.6,0,0,1-.33-.25l-.14-.14c-.06,0-.18,0-.18-.08s-.11,0-.16-.08-.39-.27-.59-.4-.63-.35-.93-.55a6.7,6.7,0,0,0-1.08-.5c0,.08,0,.16,0,.19a1,1,0,0,1,.19.56,4.15,4.15,0,0,1,.12,1c0,.66,0,1.31-.06,2,0,.23,0,.45-.07.68a5.3,5.3,0,0,1-.33,1.36c.07.09.13.18.25.17s.51-.09.76-.15.52-.15.81-.23a4.23,4.23,0,0,1-.06.42,3,3,0,0,1-.11.4,4.44,4.44,0,0,1-.72,1.27,5.67,5.67,0,0,1-.48.5c-.06.06-.16.09-.21.16a1.57,1.57,0,0,1-.38.31,7.58,7.58,0,0,1-.74.4,3.4,3.4,0,0,1-1.56.36H194l-.34,0c-.19,0-.37,0-.55,0a1.33,1.33,0,0,1-.56-.11l-.26-.1a4.12,4.12,0,0,1-1.32-.82,3.52,3.52,0,0,1-.36-.41,4,4,0,0,1-.43-.72,3.53,3.53,0,0,1-.45-1.51,15.71,15.71,0,0,1,0-1.68c0-.12.05-.23.19-.23a.62.62,0,0,0,.32-.14l.52-.31a4.2,4.2,0,0,0,.51-.35c.14-.12.31-.2.45-.33s.38-.31.57-.46a9,9,0,0,0,.88-.76,4.08,4.08,0,0,0,.36-.36c.17-.2.33-.41.48-.62a7.2,7.2,0,0,0,1-1.82,5.9,5.9,0,0,0,.36-1.49,4,4,0,0,0-.11-1.62,2,2,0,0,1-.09-.33,5.61,5.61,0,0,0-.47-1.13,4.86,4.86,0,0,0-.35-.53c-.14-.16-.21-.36-.41-.47s-.07-.13-.12-.18l-.72-.67c-.28-.26-.56-.52-.85-.77s-.51-.4-.77-.61a3.26,3.26,0,0,0-.4-.34c-.16-.09-.26-.24-.41-.34a7.11,7.11,0,0,1-.68-.55.26.26,0,0,1-.13-.3c.05-.23.06-.47.12-.69a1.1,1.1,0,0,1,.76-.8h.07l.45,0,7.83,0c.4,1,.79,2.06,1.38,3.36,1.36,3,3.64,8.85,3.84,12.88.4,8.08-1.78,11.65-10.4,13.35-4.45.88-8.62-.55-12.12-2.84Zm51.87-9.64c-3.12,4.29-11.37,8.5-15.89,11.24a38,38,0,0,1-24.39,4.66,14.83,14.83,0,0,1-7.37-2.94c4.39,1.81,10.37,1.85,13.81,1.91,6.59.11,14.33-4.36,19.84-7.51,2.37-1.35,5.34-2.74,7.29-4.62,7-4.66,11.56-12.29,13.76-15.18C240.82,255.21,235.47,262,233.68,264.48Z"/><path class="cls-1" d="M211.22,276.85c3.84,0,3.9-1.36,7.46-2.57,2.74-.94,1.16,2.88,12.61-2.9a59.18,59.18,0,0,0,5.27-3.68c2.39-1.59,4.54-3.64,7-5.18,10.28-6.48,26-5.78,37.65,2.47-2.88-1.84-10.35-3.78-15.51-4.57a28.39,28.39,0,0,0-11,.54c-6,1.6-10.14,7.59-15,11.2C232.69,277.38,219.3,282.57,211.22,276.85Z"/><path class="cls-3" d="M153.7,289.77v39.58h-5.83a2.25,2.25,0,0,1-2.39-1.74l-.65-3.16a21,21,0,0,1-5.37,4,14.69,14.69,0,0,1-6.9,1.53,14.11,14.11,0,0,1-5.73-1.1,11.53,11.53,0,0,1-4.19-3.11,13.63,13.63,0,0,1-2.56-4.76,20.16,20.16,0,0,1-.87-6.08V289.77h9.53v25.15a8.43,8.43,0,0,0,1.68,5.61,6.19,6.19,0,0,0,5,2,10.09,10.09,0,0,0,4.63-1.1,16.1,16.1,0,0,0,4.09-3V289.77Z"/><path class="cls-3" d="M172.17,296.63a17,17,0,0,1,4.4-5.57,9.38,9.38,0,0,1,6-2,7.37,7.37,0,0,1,4.4,1.2l-.62,7.14a1.87,1.87,0,0,1-.56,1,1.58,1.58,0,0,1-1,.29,12.41,12.41,0,0,1-1.71-.19,13.18,13.18,0,0,0-2.22-.2,8,8,0,0,0-2.82.47,7,7,0,0,0-2.22,1.33,9.24,9.24,0,0,0-1.73,2.1,20.57,20.57,0,0,0-1.41,2.82v24.38h-9.53V289.77h5.6a3.07,3.07,0,0,1,2,.52,3,3,0,0,1,.77,1.87Z"/><path class="cls-3" d="M230.54,289.77,209,340.23a3.65,3.65,0,0,1-1.1,1.52,3.32,3.32,0,0,1-2.06.52h-7.1l7.41-15.89-16-36.61h8.37a2.6,2.6,0,0,1,1.75.54,3.46,3.46,0,0,1,1,1.23l8.41,20.52a19.07,19.07,0,0,1,.71,2.09c.2.69.38,1.4.56,2.12.23-.72.47-1.43.7-2.14s.49-1.41.77-2.1l7.95-20.49a2.73,2.73,0,0,1,1-1.27,2.67,2.67,0,0,1,1.6-.5Z"/><path class="cls-3" d="M243.92,294.63a19.63,19.63,0,0,1,5.31-4,14.45,14.45,0,0,1,6.66-1.48,13.92,13.92,0,0,1,6.19,1.35,13.17,13.17,0,0,1,4.7,3.88,18.07,18.07,0,0,1,3,6.11,28.67,28.67,0,0,1,1.05,8.06,29.93,29.93,0,0,1-1.2,8.76,20.21,20.21,0,0,1-3.41,6.73,15.29,15.29,0,0,1-12.29,5.89,14.4,14.4,0,0,1-3.36-.37,12.25,12.25,0,0,1-2.78-1,11.33,11.33,0,0,1-2.33-1.6,19.43,19.43,0,0,1-2-2.11L243,327.5a2.09,2.09,0,0,1-2.32,1.85H234.4V275.49l9.52-6.71Zm0,24.46a9.47,9.47,0,0,0,3.53,2.77,10.26,10.26,0,0,0,4,.81,9.48,9.48,0,0,0,3.95-.79,7.44,7.44,0,0,0,3-2.47,12.26,12.26,0,0,0,1.89-4.28,25.59,25.59,0,0,0,.66-6.23c0-4.34-.72-7.49-2.16-9.43a7.26,7.26,0,0,0-6.21-2.91,8.93,8.93,0,0,0-4.79,1.25,15.84,15.84,0,0,0-3.9,3.53Z"/><path class="cls-1" d="M288.48,278.23a5.42,5.42,0,0,1-.51,2.32,6.16,6.16,0,0,1-1.33,1.89,6.26,6.26,0,0,1-1.95,1.29,6,6,0,0,1-2.39.48,5.75,5.75,0,0,1-2.33-.48,6.11,6.11,0,0,1-3.2-3.18,5.55,5.55,0,0,1-.49-2.32,5.81,5.81,0,0,1,.49-2.39,6.05,6.05,0,0,1,1.29-1.93,6.19,6.19,0,0,1,1.91-1.29,5.75,5.75,0,0,1,2.33-.48,6,6,0,0,1,2.39.48,6.26,6.26,0,0,1,1.95,1.29,6,6,0,0,1,1.33,1.93A5.67,5.67,0,0,1,288.48,278.23Zm-1.32,11.54v39.58H277.6V289.77Z"/><path class="cls-1" d="M294.93,295.28A23.52,23.52,0,0,1,311.37,289a16.06,16.06,0,0,1,6.21,1.14,13.19,13.19,0,0,1,4.63,3.16,13.46,13.46,0,0,1,2.87,4.85,18.44,18.44,0,0,1,1,6.17v25h-4.33a4.38,4.38,0,0,1-2.08-.41,2.81,2.81,0,0,1-1.16-1.64l-.84-2.85a35.55,35.55,0,0,1-2.94,2.37,17.08,17.08,0,0,1-3,1.72,16.54,16.54,0,0,1-3.3,1.06,19.26,19.26,0,0,1-3.87.37,15.14,15.14,0,0,1-4.63-.68,10,10,0,0,1-3.67-2,9,9,0,0,1-2.39-3.35,11.83,11.83,0,0,1-.85-4.67,9.42,9.42,0,0,1,.5-3,9,9,0,0,1,1.64-2.84,14,14,0,0,1,2.95-2.54,19.1,19.1,0,0,1,4.46-2.08,37.21,37.21,0,0,1,6.15-1.45,62.5,62.5,0,0,1,8-.68v-2.31q0-4-1.7-5.89a6.21,6.21,0,0,0-4.9-1.9,11.67,11.67,0,0,0-3.84.54,15.94,15.94,0,0,0-2.68,1.21l-2.1,1.22a4.16,4.16,0,0,1-2.1.54,2.79,2.79,0,0,1-1.7-.52,4.45,4.45,0,0,1-1.12-1.22Zm21.84,17.17a54.32,54.32,0,0,0-6.95.71,19.15,19.15,0,0,0-4.51,1.33,6,6,0,0,0-2.43,1.9,4.08,4.08,0,0,0-.73,2.35,4.14,4.14,0,0,0,1.48,3.59,6.44,6.44,0,0,0,3.88,1.08,11.41,11.41,0,0,0,5.07-1.06,15.24,15.24,0,0,0,4.19-3.23Z"/><path class="cls-3" d="M108.82,308.39H88.67V322.1h23.65v8.43H78.18V279.59h34.07v8.51H88.67v12.13h20.15Z"/></svg>